<svg xmlns="http://www.w3.org/2000/svg" width="600" height="470" font-family="-apple-system,Helvetica,Arial,sans-serif">
<rect width="600" height="470" fill="white"/>
<text x="300" y="30" text-anchor="middle" font-size="17" font-weight="bold">TDD: more cost, less quality - at every difficulty</text>
<text x="300" y="50" text-anchor="middle" font-size="11" fill="#666">x = token cost ($/task), y = mean test pass-rate %. Arrow = control → TDD. Down-and-right = worse.</text>
<rect x="78" y="72" width="482" height="328" fill="#fafafa" stroke="#ddd"/>
<text x="319" y="442" text-anchor="middle" font-size="12" fill="#444">$ / task</text>
<text transform="translate(24,236) rotate(-90)" text-anchor="middle" font-size="12" fill="#444">mean pass-rate %</text>
<text x="78.0" y="418" text-anchor="middle" font-size="9" fill="#999">$1.01</text>
<text x="70" y="403.0" text-anchor="end" font-size="9" fill="#999">20</text>
<text x="198.5" y="418" text-anchor="middle" font-size="9" fill="#999">$1.23</text>
<text x="70" y="321.0" text-anchor="end" font-size="9" fill="#999">35</text>
<text x="319.0" y="418" text-anchor="middle" font-size="9" fill="#999">$1.44</text>
<text x="70" y="239.0" text-anchor="end" font-size="9" fill="#999">49</text>
<text x="439.5" y="418" text-anchor="middle" font-size="9" fill="#999">$1.66</text>
<text x="70" y="157.0" text-anchor="end" font-size="9" fill="#999">64</text>
<text x="560.0" y="418" text-anchor="middle" font-size="9" fill="#999">$1.88</text>
<text x="70" y="75.0" text-anchor="end" font-size="9" fill="#999">78</text>
<defs><marker id="ar" markerWidth="9" markerHeight="9" refX="7" refY="3" orient="auto"><path d="M0,0 L7,3 L0,6 Z" fill="#CC342D"/></marker></defs>
<line x1="119.4" y1="106.3" x2="516.6" y2="134.6" stroke="#CC342D" stroke-width="1.5" opacity="0.55" marker-end="url(#ar)"/>
<circle cx="111.5" cy="105.7" r="6" fill="#111111" stroke="white" stroke-width="1.2"/>
<circle cx="526.5" cy="135.3" r="6" fill="#CC342D" stroke="white" stroke-width="1.2"/>
<text x="102.5" y="108.7" text-anchor="end" font-size="11" font-weight="600" fill="#444">EASY</text>
<line x1="157.9" y1="195.4" x2="453.2" y2="214.1" stroke="#CC342D" stroke-width="1.5" opacity="0.55" marker-end="url(#ar)"/>
<circle cx="149.9" cy="194.9" r="6" fill="#111111" stroke="white" stroke-width="1.2"/>
<circle cx="463.2" cy="214.7" r="6" fill="#CC342D" stroke="white" stroke-width="1.2"/>
<text x="140.9" y="197.9" text-anchor="end" font-size="11" font-weight="600" fill="#444">MED</text>
<line x1="156.4" y1="355.1" x2="440.6" y2="365.9" stroke="#CC342D" stroke-width="1.5" opacity="0.55" marker-end="url(#ar)"/>
<circle cx="148.4" cy="354.8" r="6" fill="#111111" stroke="white" stroke-width="1.2"/>
<circle cx="450.6" cy="366.3" r="6" fill="#CC342D" stroke="white" stroke-width="1.2"/>
<text x="139.4" y="357.8" text-anchor="end" font-size="11" font-weight="600" fill="#444">HARD</text>
<circle cx="430" cy="86" r="6" fill="#111111" stroke="white" stroke-width="1.2"/><text x="441" y="90" font-size="12" fill="#111">control (free choice)</text>
<circle cx="430" cy="106" r="6" fill="#CC342D" stroke="white" stroke-width="1.2"/><text x="441" y="110" font-size="12" fill="#CC342D">test-driven (TDD)</text>
</svg>
