<svg xmlns="http://www.w3.org/2000/svg" width="600" height="470" font-family="-apple-system,Helvetica,Arial,sans-serif">
<rect width="600" height="470" fill="white"/>
<text x="300" y="30" text-anchor="middle" font-size="17" font-weight="bold">Coding guidelines: less quality, no cost savings</text>
<text x="300" y="50" text-anchor="middle" font-size="11" fill="#666">x = token cost ($/task), y = mean test pass-rate %. Arrow = control → guidelines. Down = worse quality.</text>
<rect x="78" y="72" width="482" height="328" fill="#fafafa" stroke="#ddd"/>
<text x="319" y="442" text-anchor="middle" font-size="12" fill="#444">$ / task</text>
<text transform="translate(24,236) rotate(-90)" text-anchor="middle" font-size="12" fill="#444">mean pass-rate %</text>
<text x="78.0" y="418" text-anchor="middle" font-size="9" fill="#999">$1.01</text>
<text x="70" y="403.0" text-anchor="end" font-size="9" fill="#999">21</text>
<text x="198.5" y="418" text-anchor="middle" font-size="9" fill="#999">$1.08</text>
<text x="70" y="321.0" text-anchor="end" font-size="9" fill="#999">36</text>
<text x="319.0" y="418" text-anchor="middle" font-size="9" fill="#999">$1.16</text>
<text x="70" y="239.0" text-anchor="end" font-size="9" fill="#999">50</text>
<text x="439.5" y="418" text-anchor="middle" font-size="9" fill="#999">$1.23</text>
<text x="70" y="157.0" text-anchor="end" font-size="9" fill="#999">64</text>
<text x="560.0" y="418" text-anchor="middle" font-size="9" fill="#999">$1.30</text>
<text x="70" y="75.0" text-anchor="end" font-size="9" fill="#999">78</text>
<defs><marker id="ar" markerWidth="9" markerHeight="9" refX="7" refY="3" orient="auto"><path d="M0,0 L7,3 L0,6 Z" fill="#2563EB"/></marker></defs>
<line x1="184.9" y1="106.7" x2="372.3" y2="110.4" stroke="#2563EB" stroke-width="1.5" opacity="0.55" marker-end="url(#ar)"/>
<circle cx="176.9" cy="106.5" r="6" fill="#111111" stroke="white" stroke-width="1.2"/>
<circle cx="382.3" cy="110.6" r="6" fill="#2563EB" stroke="white" stroke-width="1.2"/>
<text x="167.9" y="109.5" text-anchor="end" font-size="11" font-weight="600" fill="#444">EASY</text>
<line x1="258.7" y1="192.2" x2="242.2" y2="201.5" stroke="#2563EB" stroke-width="1.5" opacity="0.55" marker-end="url(#ar)"/>
<circle cx="265.6" cy="188.3" r="6" fill="#111111" stroke="white" stroke-width="1.2"/>
<circle cx="233.4" cy="206.4" r="6" fill="#2563EB" stroke="white" stroke-width="1.2"/>
<text x="256.6" y="191.3" text-anchor="end" font-size="11" font-weight="600" fill="#444">MED</text>
<line x1="319.0" y1="349.9" x2="451.2" y2="364.4" stroke="#2563EB" stroke-width="1.5" opacity="0.55" marker-end="url(#ar)"/>
<circle cx="311.1" cy="349.0" r="6" fill="#111111" stroke="white" stroke-width="1.2"/>
<circle cx="461.1" cy="365.5" r="6" fill="#2563EB" stroke="white" stroke-width="1.2"/>
<text x="302.1" y="352.0" text-anchor="end" font-size="11" font-weight="600" fill="#444">HARD</text>
<circle cx="430" cy="86" r="6" fill="#111111" stroke="white" stroke-width="1.2"/><text x="441" y="90" font-size="12" fill="#111">control (no guidelines)</text>
<circle cx="430" cy="106" r="6" fill="#2563EB" stroke="white" stroke-width="1.2"/><text x="441" y="110" font-size="12" fill="#2563EB">with karpathy guidelines</text>
</svg>
