<svg xmlns="http://www.w3.org/2000/svg" width="560" height="460" font-family="-apple-system,Helvetica,Arial,sans-serif">
<rect width="560" height="460" fill="white"/>
<text x="280.0" y="28" text-anchor="middle" font-size="17" font-weight="bold">HARD tasks: cost vs quality</text>
<text x="280.0" y="48" text-anchor="middle" font-size="11" fill="#666">x = token cost ($/task), y = mean pass-rate %. Top-left = cheap + good. Dashed = medians.</text>
<rect x="70" y="70" width="460" height="330" fill="#fafafa" stroke="#ddd"/>
<line x1="327.8" y1="70" x2="327.8" y2="400" stroke="#ccc" stroke-dasharray="5 4"/>
<line x1="70" y1="255.6" x2="530" y2="255.6" stroke="#ccc" stroke-dasharray="5 4"/>
<text x="300.0" y="438" text-anchor="middle" font-size="12" fill="#444">$ / task</text>
<text transform="translate(20,235.0) rotate(-90)" text-anchor="middle" font-size="12" fill="#444">mean pass-rate %</text>
<text x="70.0" y="418" text-anchor="middle" font-size="9" fill="#999">$1.10</text>
<text x="62" y="403.0" text-anchor="end" font-size="9" fill="#999">23</text>
<text x="185.0" y="418" text-anchor="middle" font-size="9" fill="#999">$1.20</text>
<text x="62" y="320.5" text-anchor="end" font-size="9" fill="#999">25</text>
<text x="300.0" y="418" text-anchor="middle" font-size="9" fill="#999">$1.30</text>
<text x="62" y="238.0" text-anchor="end" font-size="9" fill="#999">27</text>
<text x="415.0" y="418" text-anchor="middle" font-size="9" fill="#999">$1.40</text>
<text x="62" y="155.5" text-anchor="end" font-size="9" fill="#999">29</text>
<text x="530.0" y="418" text-anchor="middle" font-size="9" fill="#999">$1.50</text>
<text x="62" y="73.0" text-anchor="end" font-size="9" fill="#999">31</text>
<circle cx="114.5" cy="114.4" r="6" fill="#111111" stroke="white" stroke-width="1.2"/>
<text x="123.5" y="117.4" font-size="12" font-weight="600" fill="#111111" text-anchor="start">free</text>
<circle cx="485.5" cy="124.4" r="6" fill="#3178C6" stroke="white" stroke-width="1.2"/>
<text x="494.5" y="127.4" font-size="12" font-weight="600" fill="#3178C6" text-anchor="start">ts</text>
<circle cx="258.4" cy="162.2" r="6" fill="#3572A5" stroke="white" stroke-width="1.2"/>
<text x="267.4" y="165.2" font-size="12" font-weight="600" fill="#3572A5" text-anchor="start">python</text>
<circle cx="367.1" cy="249.0" r="6" fill="#CC342D" stroke="white" stroke-width="1.2"/>
<text x="376.1" y="252.0" font-size="12" font-weight="600" fill="#CC342D" text-anchor="start">ruby</text>
<circle cx="327.8" cy="255.6" r="6" fill="#00ADD8" stroke="white" stroke-width="1.2"/>
<text x="336.8" y="258.6" font-size="12" font-weight="600" fill="#00ADD8" text-anchor="start">go</text>
<circle cx="373.5" cy="276.7" r="6" fill="#B07219" stroke="white" stroke-width="1.2"/>
<text x="382.5" y="279.7" font-size="12" font-weight="600" fill="#B07219" text-anchor="start">java</text>
<circle cx="307.0" cy="292.2" r="6" fill="#D4B500" stroke="white" stroke-width="1.2"/>
<text x="316.0" y="295.2" font-size="12" font-weight="600" fill="#D4B500" text-anchor="start">js</text>
<circle cx="435.1" cy="314.8" r="6" fill="#B7410E" stroke="white" stroke-width="1.2"/>
<text x="444.1" y="317.8" font-size="12" font-weight="600" fill="#B7410E" text-anchor="start">rust</text>
<circle cx="292.7" cy="355.6" r="6" fill="#555555" stroke="white" stroke-width="1.2"/>
<text x="301.7" y="358.6" font-size="12" font-weight="600" fill="#555555" text-anchor="start">c</text>
</svg>
