<svg xmlns="http://www.w3.org/2000/svg" width="560" height="460" font-family="-apple-system,Helvetica,Arial,sans-serif">
<rect width="560" height="460" fill="white"/>
<text x="280.0" y="28" text-anchor="middle" font-size="17" font-weight="bold">EASY tasks: cost vs quality</text>
<text x="280.0" y="48" text-anchor="middle" font-size="11" fill="#666">x = token cost ($/task), y = mean pass-rate %. Top-left = cheap + good. Dashed = medians.</text>
<rect x="70" y="70" width="460" height="330" fill="#fafafa" stroke="#ddd"/>
<line x1="205.4" y1="70" x2="205.4" y2="400" stroke="#ccc" stroke-dasharray="5 4"/>
<line x1="70" y1="178.5" x2="530" y2="178.5" stroke="#ccc" stroke-dasharray="5 4"/>
<text x="300.0" y="438" text-anchor="middle" font-size="12" fill="#444">$ / task</text>
<text transform="translate(20,235.0) rotate(-90)" text-anchor="middle" font-size="12" fill="#444">mean pass-rate %</text>
<text x="70.0" y="418" text-anchor="middle" font-size="9" fill="#999">$1.04</text>
<text x="62" y="403.0" text-anchor="end" font-size="9" fill="#999">65</text>
<text x="185.0" y="418" text-anchor="middle" font-size="9" fill="#999">$1.15</text>
<text x="62" y="320.5" text-anchor="end" font-size="9" fill="#999">68</text>
<text x="300.0" y="418" text-anchor="middle" font-size="9" fill="#999">$1.26</text>
<text x="62" y="238.0" text-anchor="end" font-size="9" fill="#999">70</text>
<text x="415.0" y="418" text-anchor="middle" font-size="9" fill="#999">$1.37</text>
<text x="62" y="155.5" text-anchor="end" font-size="9" fill="#999">73</text>
<text x="530.0" y="418" text-anchor="middle" font-size="9" fill="#999">$1.49</text>
<text x="62" y="73.0" text-anchor="end" font-size="9" fill="#999">76</text>
<circle cx="485.5" cy="106.1" r="6" fill="#B7410E" stroke="white" stroke-width="1.2"/>
<text x="494.5" y="109.1" font-size="12" font-weight="600" fill="#B7410E" text-anchor="start">rust</text>
<circle cx="114.5" cy="133.3" r="6" fill="#111111" stroke="white" stroke-width="1.2"/>
<text x="123.5" y="136.3" font-size="12" font-weight="600" fill="#111111" text-anchor="start">free</text>
<circle cx="203.7" cy="164.8" r="6" fill="#3572A5" stroke="white" stroke-width="1.2"/>
<text x="212.7" y="167.8" font-size="12" font-weight="600" fill="#3572A5" text-anchor="start">python</text>
<circle cx="205.4" cy="174.3" r="6" fill="#D4B500" stroke="white" stroke-width="1.2"/>
<line x1="211.4" y1="174.3" x2="214.4" y2="186.3" stroke="#D4B500" stroke-width="0.7" opacity="0.5"/>
<text x="214.4" y="189.3" font-size="12" font-weight="600" fill="#D4B500" text-anchor="start">js</text>
<circle cx="297.9" cy="178.5" r="6" fill="#CC342D" stroke="white" stroke-width="1.2"/>
<text x="306.9" y="181.5" font-size="12" font-weight="600" fill="#CC342D" text-anchor="start">ruby</text>
<circle cx="368.1" cy="182.2" r="6" fill="#3178C6" stroke="white" stroke-width="1.2"/>
<text x="377.1" y="185.2" font-size="12" font-weight="600" fill="#3178C6" text-anchor="start">ts</text>
<circle cx="232.3" cy="212.5" r="6" fill="#00ADD8" stroke="white" stroke-width="1.2"/>
<text x="241.3" y="215.5" font-size="12" font-weight="600" fill="#00ADD8" text-anchor="start">go</text>
<circle cx="194.0" cy="234.2" r="6" fill="#B07219" stroke="white" stroke-width="1.2"/>
<text x="203.0" y="237.2" font-size="12" font-weight="600" fill="#B07219" text-anchor="start">java</text>
<circle cx="190.5" cy="363.9" r="6" fill="#555555" stroke="white" stroke-width="1.2"/>
<text x="199.5" y="366.9" font-size="12" font-weight="600" fill="#555555" text-anchor="start">c</text>
</svg>
