<svg xmlns="http://www.w3.org/2000/svg" width="560" height="460" font-family="-apple-system,Helvetica,Arial,sans-serif">
<rect width="560" height="460" fill="white"/>
<text x="280.0" y="28" text-anchor="middle" font-size="17" font-weight="bold">HARD tasks: cost vs quality</text>
<text x="280.0" y="48" text-anchor="middle" font-size="11" fill="#666">x = token cost ($/task), y = mean pass-rate %. Top-left = cheap + good. Dashed = medians.</text>
<rect x="70" y="70" width="460" height="330" fill="#fafafa" stroke="#ddd"/>
<line x1="320.9" y1="70" x2="320.9" y2="400" stroke="#ccc" stroke-dasharray="5 4"/>
<line x1="70" y1="309.6" x2="530" y2="309.6" stroke="#ccc" stroke-dasharray="5 4"/>
<text x="300.0" y="438" text-anchor="middle" font-size="12" fill="#444">$ / task</text>
<text transform="translate(20,235.0) rotate(-90)" text-anchor="middle" font-size="12" fill="#444">mean pass-rate %</text>
<text x="70.0" y="418" text-anchor="middle" font-size="9" fill="#999">$1.12</text>
<text x="62" y="403.0" text-anchor="end" font-size="9" fill="#999">23</text>
<text x="185.0" y="418" text-anchor="middle" font-size="9" fill="#999">$1.21</text>
<text x="62" y="320.5" text-anchor="end" font-size="9" fill="#999">25</text>
<text x="300.0" y="418" text-anchor="middle" font-size="9" fill="#999">$1.30</text>
<text x="62" y="238.0" text-anchor="end" font-size="9" fill="#999">26</text>
<text x="415.0" y="418" text-anchor="middle" font-size="9" fill="#999">$1.39</text>
<text x="62" y="155.5" text-anchor="end" font-size="9" fill="#999">28</text>
<text x="530.0" y="418" text-anchor="middle" font-size="9" fill="#999">$1.48</text>
<text x="62" y="73.0" text-anchor="end" font-size="9" fill="#999">29</text>
<circle cx="485.5" cy="119.9" r="6" fill="#3178C6" stroke="white" stroke-width="1.2"/>
<text x="494.5" y="122.9" font-size="12" font-weight="600" fill="#3178C6" text-anchor="start">ts</text>
<circle cx="114.5" cy="146.7" r="6" fill="#111111" stroke="white" stroke-width="1.2"/>
<text x="123.5" y="149.7" font-size="12" font-weight="600" fill="#111111" text-anchor="start">free</text>
<circle cx="240.8" cy="181.5" r="6" fill="#3572A5" stroke="white" stroke-width="1.2"/>
<text x="249.8" y="184.5" font-size="12" font-weight="600" fill="#3572A5" text-anchor="start">python</text>
<circle cx="370.4" cy="252.6" r="6" fill="#CC342D" stroke="white" stroke-width="1.2"/>
<text x="379.4" y="255.6" font-size="12" font-weight="600" fill="#CC342D" text-anchor="start">ruby</text>
<circle cx="447.4" cy="309.6" r="6" fill="#B7410E" stroke="white" stroke-width="1.2"/>
<text x="456.4" y="312.6" font-size="12" font-weight="600" fill="#B7410E" text-anchor="start">rust</text>
<circle cx="279.5" cy="324.7" r="6" fill="#D4B500" stroke="white" stroke-width="1.2"/>
<text x="288.5" y="327.7" font-size="12" font-weight="600" fill="#D4B500" text-anchor="start">js</text>
<circle cx="320.9" cy="325.3" r="6" fill="#00ADD8" stroke="white" stroke-width="1.2"/>
<text x="329.9" y="328.3" font-size="12" font-weight="600" fill="#00ADD8" text-anchor="start">go</text>
<circle cx="389.6" cy="340.9" r="6" fill="#B07219" stroke="white" stroke-width="1.2"/>
<text x="398.6" y="343.9" font-size="12" font-weight="600" fill="#B07219" text-anchor="start">java</text>
<circle cx="305.8" cy="350.1" r="6" fill="#555555" stroke="white" stroke-width="1.2"/>
<text x="314.8" y="353.1" font-size="12" font-weight="600" fill="#555555" text-anchor="start">c</text>
</svg>
