<svg xmlns="http://www.w3.org/2000/svg" width="560" height="460" font-family="-apple-system,Helvetica,Arial,sans-serif">
<rect width="560" height="460" fill="white"/>
<text x="280.0" y="28" text-anchor="middle" font-size="17" font-weight="bold">EASY tasks: cost vs quality</text>
<text x="280.0" y="48" text-anchor="middle" font-size="11" fill="#666">x = token cost ($/task), y = mean pass-rate %. Top-left = cheap + good. Dashed = medians.</text>
<rect x="70" y="70" width="460" height="330" fill="#fafafa" stroke="#ddd"/>
<line x1="213.1" y1="70" x2="213.1" y2="400" stroke="#ccc" stroke-dasharray="5 4"/>
<line x1="70" y1="185.3" x2="530" y2="185.3" stroke="#ccc" stroke-dasharray="5 4"/>
<text x="300.0" y="438" text-anchor="middle" font-size="12" fill="#444">$ / task</text>
<text transform="translate(20,235.0) rotate(-90)" text-anchor="middle" font-size="12" fill="#444">mean pass-rate %</text>
<text x="70.0" y="418" text-anchor="middle" font-size="9" fill="#999">$1.03</text>
<text x="62" y="403.0" text-anchor="end" font-size="9" fill="#999">65</text>
<text x="185.0" y="418" text-anchor="middle" font-size="9" fill="#999">$1.14</text>
<text x="62" y="320.5" text-anchor="end" font-size="9" fill="#999">68</text>
<text x="300.0" y="418" text-anchor="middle" font-size="9" fill="#999">$1.25</text>
<text x="62" y="238.0" text-anchor="end" font-size="9" fill="#999">71</text>
<text x="415.0" y="418" text-anchor="middle" font-size="9" fill="#999">$1.36</text>
<text x="62" y="155.5" text-anchor="end" font-size="9" fill="#999">73</text>
<text x="530.0" y="418" text-anchor="middle" font-size="9" fill="#999">$1.47</text>
<text x="62" y="73.0" text-anchor="end" font-size="9" fill="#999">76</text>
<circle cx="485.5" cy="106.1" r="6" fill="#B7410E" stroke="white" stroke-width="1.2"/>
<text x="494.5" y="109.1" font-size="12" font-weight="600" fill="#B7410E" text-anchor="start">rust</text>
<circle cx="114.5" cy="137.0" r="6" fill="#111111" stroke="white" stroke-width="1.2"/>
<text x="123.5" y="140.0" font-size="12" font-weight="600" fill="#111111" text-anchor="start">free</text>
<circle cx="213.1" cy="167.9" r="6" fill="#3572A5" stroke="white" stroke-width="1.2"/>
<text x="222.1" y="170.9" font-size="12" font-weight="600" fill="#3572A5" text-anchor="start">python</text>
<circle cx="206.2" cy="177.0" r="6" fill="#D4B500" stroke="white" stroke-width="1.2"/>
<line x1="212.2" y1="177.0" x2="215.2" y2="189.0" stroke="#D4B500" stroke-width="0.7" opacity="0.5"/>
<text x="215.2" y="192.0" font-size="12" font-weight="600" fill="#D4B500" text-anchor="start">js</text>
<circle cx="285.8" cy="185.3" r="6" fill="#CC342D" stroke="white" stroke-width="1.2"/>
<text x="294.8" y="188.3" font-size="12" font-weight="600" fill="#CC342D" text-anchor="start">ruby</text>
<circle cx="368.4" cy="187.2" r="6" fill="#3178C6" stroke="white" stroke-width="1.2"/>
<text x="377.4" y="190.2" font-size="12" font-weight="600" fill="#3178C6" text-anchor="start">ts</text>
<circle cx="230.1" cy="218.5" r="6" fill="#00ADD8" stroke="white" stroke-width="1.2"/>
<text x="239.1" y="221.5" font-size="12" font-weight="600" fill="#00ADD8" text-anchor="start">go</text>
<circle cx="200.3" cy="238.6" r="6" fill="#B07219" stroke="white" stroke-width="1.2"/>
<text x="209.3" y="241.6" font-size="12" font-weight="600" fill="#B07219" text-anchor="start">java</text>
<circle cx="196.3" cy="363.9" r="6" fill="#555555" stroke="white" stroke-width="1.2"/>
<text x="205.3" y="366.9" font-size="12" font-weight="600" fill="#555555" text-anchor="start">c</text>
</svg>
